<svg width="20" height="22" viewBox="0 0 20 22" fill="none" xmlns="http://www.w3.org/2000/svg">
<path d="M15.7832 15.5798L20 19.9945L18.6069 21.4534L14.3911 17.0376C12.8224 18.3544 10.8713 19.0707 8.86088 19.0677C3.96968 19.0677 0 14.9107 0 9.78871C0 4.66673 3.96968 0.509766 8.86088 0.509766C13.7521 0.509766 17.7218 4.66673 17.7218 9.78871C17.7246 11.894 17.0407 13.9372 15.7832 15.5798ZM13.8082 14.8148C15.0577 13.4692 15.7555 11.6656 15.7527 9.78871C15.7527 5.80083 12.6681 2.57175 8.86088 2.57175C5.05267 2.57175 1.96909 5.80083 1.96909 9.78871C1.96909 13.7756 5.05267 17.0057 8.86088 17.0057C10.6532 17.0086 12.3756 16.2779 13.6605 14.9695L13.8082 14.8148Z" fill="#B171D9"/>
</svg>
