<svg id="Calque_1" data-name="Calque 1" xmlns="http://www.w3.org/2000/svg" viewBox="0 0 347.81 196.16"><defs><style>.cls-1{fill:#fff;}</style></defs><path class="cls-1" d="M168.88,375.4l-13.18,10c-5.58,4.23-14.61,4.23-20.13,0L20.14,298.1c-5.59-4.22-5.59-11.05,0-15.23l115.43-87.32c5.58-4.22,14.61-4.22,20.13,0l13.18,10c5.64,4.27,5.52,11.23-.24,15.41L97.09,272.49H356.3c7.9,0,7.45,4.81,7.45,10.78v14.38c0,6-1,10.78-8.87,10.78H97.09L168.64,360c5.82,4.17,5.94,11.14.24,15.4Z" transform="translate(-15.95 -192.38)"/></svg>