<svg width="150" height="150" viewBox="0 0 150 150" fill="none" xmlns="http://www.w3.org/2000/svg">
<path d="M75 0C33.6425 0 0 33.6457 0 75C0 116.354 33.6425 150 75 150C116.358 150 150 116.354 150 75C150 33.6457 116.358 0 75 0ZM75 143.75C37.091 143.75 6.2499 112.909 6.2499 75C6.2499 37.091 37.091 6.2499 75 6.2499C112.909 6.2499 143.75 37.091 143.75 75C143.75 112.909 112.909 143.75 75 143.75Z" fill="#B171D9"/>
<path d="M104.816 72.3721L61.0658 44.2471C60.1075 43.6216 58.8686 43.5879 57.8798 44.1311C56.8726 44.6804 56.25 45.7304 56.25 46.8747V103.125C56.25 104.269 56.8726 105.319 57.8798 105.868C58.3436 106.122 58.8624 106.25 59.3751 106.25C59.961 106.25 60.5531 106.085 61.0658 105.752L104.816 77.6274C105.707 77.0537 106.25 76.0617 106.25 74.9997C106.25 73.9377 105.707 72.946 104.816 72.3721ZM62.4999 97.3995V52.5999L97.345 74.9997L62.4999 97.3995Z" fill="#B171D9"/>
</svg>
