<?xml version="1.0" encoding="utf-8"?>
<!-- Generator: Adobe Illustrator 25.2.1, SVG Export Plug-In . SVG Version: 6.00 Build 0)  -->
<svg version="1.1" id="Calque_1" focusable="false" xmlns="http://www.w3.org/2000/svg" xmlns:xlink="http://www.w3.org/1999/xlink"
	 x="0px" y="0px" viewBox="0 0 536 512" style="enable-background:new 0 0 536 512;" xml:space="preserve">
<style type="text/css">
	.st0{fill:#B171D9;}
</style>
<path class="st0" d="M508.5,171.5l-146.4-21.3L296.8,17.8C290.9,6,279.4,0,268,0c-11.4,0-22.8,5.9-28.7,17.8l-65.4,132.4L27.5,171.5
	c-26.2,3.8-36.8,36.1-17.7,54.6l105.9,103L90.5,474.5c-3.6,20.8,13,37.5,31.6,37.5c4.9,0,10-1.2,14.9-3.8L268,439.6l130.9,68.7
	c4.9,2.5,9.9,3.7,14.8,3.7c18.6,0,35.2-16.6,31.7-37.4l-25-145.5l105.9-103C545.3,207.6,534.8,175.3,508.5,171.5L508.5,171.5z
	 M386.8,294.7l-18.1,17.6l4.3,24.9l19.5,113.4l-102.1-53.6L268,385.3l0-317.2l51,103.3l11.2,22.6l25,3.6l114.2,16.6L386.8,294.7z"/>
</svg>
