<svg width="226" height="28" viewBox="0 0 226 28" fill="none" xmlns="http://www.w3.org/2000/svg">
<path d="M25.3516 26H20.3242V8C20.3242 7.64844 20.2539 7.32031 20.1133 7.01562C19.9844 6.71094 19.8027 6.44727 19.5684 6.22461C19.3457 5.99023 19.082 5.80859 18.7773 5.67969C18.4727 5.55078 18.1445 5.48633 17.793 5.48633C17.4414 5.48633 17.1133 5.55078 16.8086 5.67969C16.5039 5.80859 16.2344 5.99023 16 6.22461C15.7773 6.44727 15.6016 6.71094 15.4727 7.01562C15.3438 7.32031 15.2793 7.64844 15.2793 8V26H10.2344V8C10.2344 7.64844 10.1699 7.32031 10.041 7.01562C9.91211 6.71094 9.73047 6.44727 9.49609 6.22461C9.27344 5.99023 9.00977 5.80859 8.70508 5.67969C8.40039 5.55078 8.07227 5.48633 7.7207 5.48633C7.36914 5.48633 7.04102 5.55078 6.73633 5.67969C6.43164 5.80859 6.16211 5.99023 5.92773 6.22461C5.70508 6.44727 5.5293 6.71094 5.40039 7.01562C5.27148 7.32031 5.20703 7.64844 5.20703 8V26H0.162109V8C0.162109 6.95703 0.355469 5.97852 0.742188 5.06445C1.14062 4.13867 1.67969 3.33594 2.35938 2.65625C3.05078 1.96484 3.85352 1.42578 4.76758 1.03906C5.69336 0.640625 6.67773 0.441406 7.7207 0.441406C8.6582 0.441406 9.56055 0.611328 10.4277 0.951172C11.2949 1.2793 12.0742 1.75977 12.7656 2.39258C13.457 1.75977 14.2305 1.2793 15.0859 0.951172C15.9531 0.611328 16.8555 0.441406 17.793 0.441406C18.8359 0.441406 19.8145 0.640625 20.7285 1.03906C21.6543 1.42578 22.457 1.96484 23.1367 2.65625C23.8281 3.33594 24.3672 4.13867 24.7539 5.06445C25.1523 5.97852 25.3516 6.95703 25.3516 8V26ZM54.5664 13.502C54.5664 14.6973 54.4082 15.8516 54.0918 16.9648C53.7871 18.0664 53.3535 19.1035 52.791 20.0762C52.2285 21.0371 51.5488 21.916 50.752 22.7129C49.9551 23.5098 49.0762 24.1953 48.1152 24.7695C47.1543 25.332 46.1172 25.7656 45.0039 26.0703C43.8906 26.3867 42.7363 26.5449 41.541 26.5449C40.3457 26.5449 39.1914 26.3867 38.0781 26.0703C36.9766 25.7656 35.9395 25.332 34.9668 24.7695C34.0059 24.1953 33.127 23.5098 32.3301 22.7129C31.5332 21.916 30.8477 21.0371 30.2734 20.0762C29.7109 19.1035 29.2715 18.0664 28.9551 16.9648C28.6504 15.8516 28.498 14.6973 28.498 13.502C28.498 12.3066 28.6504 11.1523 28.9551 10.0391C29.2715 8.92578 29.7109 7.88867 30.2734 6.92773C30.8477 5.9668 31.5332 5.08789 32.3301 4.29102C33.127 3.49414 34.0059 2.81445 34.9668 2.25195C35.9395 1.68945 36.9766 1.25586 38.0781 0.951172C39.1914 0.634766 40.3457 0.476562 41.541 0.476562C42.7363 0.476562 43.8906 0.634766 45.0039 0.951172C46.1172 1.25586 47.1543 1.68945 48.1152 2.25195C49.0762 2.81445 49.9551 3.49414 50.752 4.29102C51.5488 5.08789 52.2285 5.9668 52.791 6.92773C53.3535 7.88867 53.7871 8.92578 54.0918 10.0391C54.4082 11.1523 54.5664 12.3066 54.5664 13.502ZM49.5566 13.502C49.5566 12.4004 49.3457 11.3633 48.9238 10.3906C48.502 9.40625 47.9277 8.55664 47.2012 7.8418C46.4863 7.11523 45.6367 6.54102 44.6523 6.11914C43.6797 5.69727 42.6426 5.48633 41.541 5.48633C40.4277 5.48633 39.3848 5.69727 38.4121 6.11914C37.4395 6.54102 36.5898 7.11523 35.8633 7.8418C35.1367 8.55664 34.5625 9.40625 34.1406 10.3906C33.7188 11.3633 33.5078 12.4004 33.5078 13.502C33.5078 14.6035 33.7188 15.6406 34.1406 16.6133C34.5625 17.5742 35.1367 18.418 35.8633 19.1445C36.5898 19.8711 37.4395 20.4453 38.4121 20.8672C39.3848 21.2891 40.4277 21.5 41.541 21.5C42.6426 21.5 43.6797 21.2891 44.6523 20.8672C45.6367 20.4453 46.4863 19.8711 47.2012 19.1445C47.9277 18.418 48.502 17.5742 48.9238 16.6133C49.3457 15.6406 49.5566 14.6035 49.5566 13.502ZM76.6973 0.792969L68.418 26H63.373L55.1289 0.792969H60.8594L65.8867 17.6152L70.9316 0.792969H76.6973ZM84.168 26H79.123V0.792969H84.168V26ZM106.141 26H88.8613V0.792969H106.141V5.83789H93.9062V10.8828H102.186V15.9277H93.9062V20.9551H106.141V26ZM114.719 5.83789V15.9277H119.764C120.455 15.9277 121.105 15.7988 121.715 15.541C122.324 15.2715 122.857 14.9082 123.314 14.4512C123.771 13.9941 124.129 13.4609 124.387 12.8516C124.656 12.2305 124.791 11.5742 124.791 10.8828C124.791 10.1914 124.656 9.54102 124.387 8.93164C124.129 8.31055 123.771 7.77148 123.314 7.31445C122.857 6.85742 122.324 6.5 121.715 6.24219C121.105 5.97266 120.455 5.83789 119.764 5.83789H114.719ZM114.719 26H109.674V0.792969H119.764C120.689 0.792969 121.58 0.916016 122.436 1.16211C123.291 1.39648 124.088 1.73633 124.826 2.18164C125.576 2.61523 126.256 3.14258 126.865 3.76367C127.486 4.37305 128.014 5.05273 128.447 5.80273C128.893 6.55273 129.232 7.35547 129.467 8.21094C129.713 9.06641 129.836 9.95703 129.836 10.8828C129.836 11.75 129.725 12.5938 129.502 13.4141C129.291 14.2344 128.98 15.0137 128.57 15.752C128.172 16.4902 127.68 17.1699 127.094 17.791C126.508 18.4121 125.852 18.9512 125.125 19.4082L127.92 26H122.559L120.361 20.9199L114.719 20.9551V26ZM150.438 26H133.158V0.792969H150.438V5.83789H138.203V10.8828H146.482V15.9277H138.203V20.9551H150.438V26ZM168.807 15.9277V10.8828C168.807 10.1914 168.672 9.54102 168.402 8.93164C168.145 8.31055 167.787 7.77148 167.33 7.31445C166.873 6.85742 166.334 6.5 165.713 6.24219C165.104 5.97266 164.453 5.83789 163.762 5.83789C163.07 5.83789 162.414 5.97266 161.793 6.24219C161.184 6.5 160.65 6.85742 160.193 7.31445C159.736 7.77148 159.373 8.31055 159.104 8.93164C158.846 9.54102 158.717 10.1914 158.717 10.8828V15.9277H168.807ZM173.852 26H168.807V20.9551H158.717V26H153.689V10.8828C153.689 9.48828 153.953 8.18164 154.48 6.96289C155.008 5.73242 155.723 4.66016 156.625 3.74609C157.539 2.83203 158.605 2.11133 159.824 1.58398C161.055 1.05664 162.367 0.792969 163.762 0.792969C165.156 0.792969 166.463 1.05664 167.682 1.58398C168.912 2.11133 169.984 2.83203 170.898 3.74609C171.812 4.66016 172.533 5.73242 173.061 6.96289C173.588 8.18164 173.852 9.48828 173.852 10.8828V26ZM198.355 23.416C197.184 24.4238 195.871 25.1973 194.418 25.7363C192.965 26.2754 191.459 26.5449 189.9 26.5449C188.705 26.5449 187.551 26.3867 186.438 26.0703C185.336 25.7656 184.299 25.332 183.326 24.7695C182.365 24.1953 181.486 23.5098 180.689 22.7129C179.893 21.916 179.207 21.0371 178.633 20.0762C178.07 19.1035 177.631 18.0664 177.314 16.9648C177.01 15.8516 176.857 14.6973 176.857 13.502C176.857 12.3066 177.01 11.1523 177.314 10.0391C177.631 8.92578 178.07 7.88867 178.633 6.92773C179.207 5.95508 179.893 5.07031 180.689 4.27344C181.486 3.47656 182.365 2.79688 183.326 2.23438C184.299 1.66016 185.336 1.2207 186.438 0.916016C187.551 0.599609 188.705 0.441406 189.9 0.441406C191.459 0.441406 192.965 0.710937 194.418 1.25C195.871 1.77734 197.184 2.55078 198.355 3.57031L195.684 7.96484C194.945 7.16797 194.072 6.55859 193.064 6.13672C192.057 5.70312 191.002 5.48633 189.9 5.48633C188.787 5.48633 187.744 5.69727 186.771 6.11914C185.799 6.54102 184.949 7.11523 184.223 7.8418C183.496 8.55664 182.922 9.40625 182.5 10.3906C182.078 11.3633 181.867 12.4004 181.867 13.502C181.867 14.6035 182.078 15.6406 182.5 16.6133C182.922 17.5742 183.496 18.418 184.223 19.1445C184.949 19.8711 185.799 20.4453 186.771 20.8672C187.744 21.2891 188.787 21.5 189.9 21.5C191.002 21.5 192.057 21.2891 193.064 20.8672C194.072 20.4336 194.945 19.8184 195.684 19.0215L198.355 23.416ZM211.873 26H206.846V5.83789H199.27V0.792969H219.432V5.83789H211.873V26ZM225.355 24.207C225.355 24.6289 225.279 25.0273 225.127 25.4023C224.975 25.7656 224.764 26.082 224.494 26.3516C224.225 26.6211 223.908 26.832 223.545 26.9844C223.182 27.1484 222.789 27.2305 222.367 27.2305C221.957 27.2305 221.564 27.1484 221.189 26.9844C220.826 26.832 220.504 26.6211 220.223 26.3516C219.953 26.082 219.736 25.7656 219.572 25.4023C219.42 25.0273 219.344 24.6289 219.344 24.207C219.344 23.7969 219.42 23.4102 219.572 23.0469C219.736 22.6836 219.953 22.3672 220.223 22.0977C220.504 21.8281 220.826 21.6172 221.189 21.4648C221.564 21.3008 221.957 21.2188 222.367 21.2188C222.789 21.2188 223.182 21.3008 223.545 21.4648C223.908 21.6172 224.225 21.8281 224.494 22.0977C224.764 22.3672 224.975 22.6836 225.127 23.0469C225.279 23.4102 225.355 23.7969 225.355 24.207Z" fill="white"/>
</svg>
