<svg width="97" height="27" viewBox="0 0 97 27" fill="none" xmlns="http://www.w3.org/2000/svg">
<path d="M17.9863 26H0.337891V0.792969H5.38281V20.9551H17.9863V26ZM44.4414 13.502C44.4414 14.6973 44.2832 15.8516 43.9668 16.9648C43.6621 18.0664 43.2285 19.1035 42.666 20.0762C42.1035 21.0371 41.4238 21.916 40.627 22.7129C39.8301 23.5098 38.9512 24.1953 37.9902 24.7695C37.0293 25.332 35.9922 25.7656 34.8789 26.0703C33.7656 26.3867 32.6113 26.5449 31.416 26.5449C30.2207 26.5449 29.0664 26.3867 27.9531 26.0703C26.8516 25.7656 25.8145 25.332 24.8418 24.7695C23.8809 24.1953 23.002 23.5098 22.2051 22.7129C21.4082 21.916 20.7227 21.0371 20.1484 20.0762C19.5859 19.1035 19.1465 18.0664 18.8301 16.9648C18.5254 15.8516 18.373 14.6973 18.373 13.502C18.373 12.3066 18.5254 11.1523 18.8301 10.0391C19.1465 8.92578 19.5859 7.88867 20.1484 6.92773C20.7227 5.9668 21.4082 5.08789 22.2051 4.29102C23.002 3.49414 23.8809 2.81445 24.8418 2.25195C25.8145 1.68945 26.8516 1.25586 27.9531 0.951172C29.0664 0.634766 30.2207 0.476562 31.416 0.476562C32.6113 0.476562 33.7656 0.634766 34.8789 0.951172C35.9922 1.25586 37.0293 1.68945 37.9902 2.25195C38.9512 2.81445 39.8301 3.49414 40.627 4.29102C41.4238 5.08789 42.1035 5.9668 42.666 6.92773C43.2285 7.88867 43.6621 8.92578 43.9668 10.0391C44.2832 11.1523 44.4414 12.3066 44.4414 13.502ZM39.4316 13.502C39.4316 12.4004 39.2207 11.3633 38.7988 10.3906C38.377 9.40625 37.8027 8.55664 37.0762 7.8418C36.3613 7.11523 35.5117 6.54102 34.5273 6.11914C33.5547 5.69727 32.5176 5.48633 31.416 5.48633C30.3027 5.48633 29.2598 5.69727 28.2871 6.11914C27.3145 6.54102 26.4648 7.11523 25.7383 7.8418C25.0117 8.55664 24.4375 9.40625 24.0156 10.3906C23.5938 11.3633 23.3828 12.4004 23.3828 13.502C23.3828 14.6035 23.5938 15.6406 24.0156 16.6133C24.4375 17.5742 25.0117 18.418 25.7383 19.1445C26.4648 19.8711 27.3145 20.4453 28.2871 20.8672C29.2598 21.2891 30.3027 21.5 31.416 21.5C32.5176 21.5 33.5547 21.2891 34.5273 20.8672C35.5117 20.4453 36.3613 19.8711 37.0762 19.1445C37.8027 18.418 38.377 17.5742 38.7988 16.6133C39.2207 15.6406 39.4316 14.6035 39.4316 13.502ZM67.8203 23.4512C66.6484 24.4473 65.3418 25.2148 63.9004 25.7539C62.459 26.2812 60.959 26.5449 59.4004 26.5449C58.2051 26.5449 57.0508 26.3867 55.9375 26.0703C54.8359 25.7656 53.8047 25.332 52.8438 24.7695C51.8828 24.1953 51.0039 23.5156 50.207 22.7305C49.4102 21.9336 48.7305 21.0547 48.168 20.0938C47.6055 19.1211 47.166 18.0781 46.8496 16.9648C46.5449 15.8516 46.3926 14.6973 46.3926 13.502C46.3926 12.3066 46.5449 11.1582 46.8496 10.0566C47.166 8.95508 47.6055 7.92383 48.168 6.96289C48.7305 5.99023 49.4102 5.11133 50.207 4.32617C51.0039 3.5293 51.8828 2.84961 52.8438 2.28711C53.8047 1.72461 54.8359 1.29102 55.9375 0.986328C57.0508 0.669922 58.2051 0.511719 59.4004 0.511719C60.959 0.511719 62.459 0.78125 63.9004 1.32031C65.3418 1.84766 66.6484 2.60937 67.8203 3.60547L65.1836 8C64.4219 7.22656 63.543 6.62305 62.5469 6.18945C61.5508 5.74414 60.502 5.52148 59.4004 5.52148C58.2988 5.52148 57.2617 5.73242 56.2891 6.1543C55.3281 6.57617 54.4844 7.15039 53.7578 7.87695C53.0312 8.5918 52.457 9.43555 52.0352 10.4082C51.6133 11.3691 51.4023 12.4004 51.4023 13.502C51.4023 14.6152 51.6133 15.6582 52.0352 16.6309C52.457 17.6035 53.0312 18.4531 53.7578 19.1797C54.4844 19.9062 55.3281 20.4805 56.2891 20.9023C57.2617 21.3242 58.2988 21.5352 59.4004 21.5352C60.0332 21.5352 60.6484 21.459 61.2461 21.3066C61.8438 21.1543 62.4121 20.9434 62.9512 20.6738V13.502H67.8203V23.4512ZM96.4023 13.502C96.4023 14.6973 96.2441 15.8516 95.9277 16.9648C95.623 18.0664 95.1895 19.1035 94.627 20.0762C94.0645 21.0371 93.3848 21.916 92.5879 22.7129C91.791 23.5098 90.9121 24.1953 89.9512 24.7695C88.9902 25.332 87.9531 25.7656 86.8398 26.0703C85.7266 26.3867 84.5723 26.5449 83.377 26.5449C82.1816 26.5449 81.0273 26.3867 79.9141 26.0703C78.8125 25.7656 77.7754 25.332 76.8027 24.7695C75.8418 24.1953 74.9629 23.5098 74.166 22.7129C73.3691 21.916 72.6836 21.0371 72.1094 20.0762C71.5469 19.1035 71.1074 18.0664 70.791 16.9648C70.4863 15.8516 70.334 14.6973 70.334 13.502C70.334 12.3066 70.4863 11.1523 70.791 10.0391C71.1074 8.92578 71.5469 7.88867 72.1094 6.92773C72.6836 5.9668 73.3691 5.08789 74.166 4.29102C74.9629 3.49414 75.8418 2.81445 76.8027 2.25195C77.7754 1.68945 78.8125 1.25586 79.9141 0.951172C81.0273 0.634766 82.1816 0.476562 83.377 0.476562C84.5723 0.476562 85.7266 0.634766 86.8398 0.951172C87.9531 1.25586 88.9902 1.68945 89.9512 2.25195C90.9121 2.81445 91.791 3.49414 92.5879 4.29102C93.3848 5.08789 94.0645 5.9668 94.627 6.92773C95.1895 7.88867 95.623 8.92578 95.9277 10.0391C96.2441 11.1523 96.4023 12.3066 96.4023 13.502ZM91.3926 13.502C91.3926 12.4004 91.1816 11.3633 90.7598 10.3906C90.3379 9.40625 89.7637 8.55664 89.0371 7.8418C88.3223 7.11523 87.4727 6.54102 86.4883 6.11914C85.5156 5.69727 84.4785 5.48633 83.377 5.48633C82.2637 5.48633 81.2207 5.69727 80.248 6.11914C79.2754 6.54102 78.4258 7.11523 77.6992 7.8418C76.9727 8.55664 76.3984 9.40625 75.9766 10.3906C75.5547 11.3633 75.3438 12.4004 75.3438 13.502C75.3438 14.6035 75.5547 15.6406 75.9766 16.6133C76.3984 17.5742 76.9727 18.418 77.6992 19.1445C78.4258 19.8711 79.2754 20.4453 80.248 20.8672C81.2207 21.2891 82.2637 21.5 83.377 21.5C84.4785 21.5 85.5156 21.2891 86.4883 20.8672C87.4727 20.4453 88.3223 19.8711 89.0371 19.1445C89.7637 18.418 90.3379 17.5742 90.7598 16.6133C91.1816 15.6406 91.3926 14.6035 91.3926 13.502Z" fill="white"/>
</svg>
