<svg width="26" height="27" viewBox="0 0 26 27" fill="none" xmlns="http://www.w3.org/2000/svg">
<path d="M20.5182 19.4279L26 25.1193L24.1889 27L18.7084 21.3073C16.6692 23.0049 14.1327 23.9282 11.5191 23.9244C5.16058 23.9244 0 18.5653 0 11.9622C0 5.35906 5.16058 0 11.5191 0C17.8777 0 23.0383 5.35906 23.0383 11.9622C23.042 14.6763 22.1529 17.3103 20.5182 19.4279ZM17.9507 18.4417C19.575 16.707 20.4822 14.3818 20.4785 11.9622C20.4785 6.82111 16.4685 2.65827 11.5191 2.65827C6.56848 2.65827 2.55981 6.82111 2.55981 11.9622C2.55981 17.1019 6.56848 21.2661 11.5191 21.2661C13.8491 21.2699 16.0883 20.3279 17.7587 18.6411L17.9507 18.4417Z" fill="#B171D9"/>
</svg>
