<?xml version="1.0" encoding="utf-8"?>
<!-- Generator: Adobe Illustrator 25.2.1, SVG Export Plug-In . SVG Version: 6.00 Build 0)  -->
<svg version="1.1" id="Calque_1" focusable="false" xmlns="http://www.w3.org/2000/svg" xmlns:xlink="http://www.w3.org/1999/xlink"
	 x="0px" y="0px" viewBox="0 0 576 512" style="enable-background:new 0 0 576 512;" xml:space="preserve">
<style type="text/css">
	.st0{fill:#B171D9;}
</style>
<path class="st0" d="M528.1,171.5L382,150.2L316.7,17.8c-11.7-23.6-45.6-23.9-57.4,0L194,150.2L47.9,171.5
	c-26.2,3.8-36.7,36.1-17.7,54.6l105.7,103l-25,145.5c-4.5,26.3,23.2,46,46.4,33.7L288,439.6l130.7,68.7
	c23.2,12.2,50.9-7.4,46.4-33.7l-25-145.5l105.7-103C564.8,207.6,554.3,175.3,528.1,171.5L528.1,171.5z M388.6,312.3l23.7,138.4
	L288,385.4l-124.3,65.3l23.7-138.4l-100.6-98l139-20.2l62.2-126l62.2,126l139,20.2L388.6,312.3L388.6,312.3z"/>
</svg>
